# AST/ASF file generated using VICON BodyLanguage
# -----------------------------------------------
:version 1.10
:name VICON
:units
  mass 1.0
  length 0.45
  angle deg
:documentation
   .ast/.asf automatically generated from VICON data using
   VICON BodyBuilder and BodyLanguage model FoxedUp or BRILLIANT.MOD
:root
   order TX TY TZ RX RY RZ
   axis XYZ
   position 0 0 0  
   orientation 0 0 0 
:bonedata
  begin
     id 1 
     name lhipjoint
     direction 0.716248 -0.617586 0.324924 
     length 2.63557 
     axis 0 0 0  XYZ
  end
  begin
     id 2 
     name lfemur
     direction 0.34202 -0.939693 0  
     length 7.01235  
     axis 0 0 20  XYZ
    dof rx ry rz
    limits (-160.0 20.0)
           (-70.0 70.0)
           (-60.0 70.0)
  end
  begin
     id 3 
     name ltibia
     direction 0.34202 -0.939693 0   
     length 8.14348   
     axis 0 0 20   XYZ
    dof rx
    limits (-10.0 170.0)
  end
  begin
     id 4 
     name lfoot
     direction 0.0982064 -0.26982 0.95789   
     length 1.99077   
     axis -90 7.62852e-016 20   XYZ
    dof rx rz
    limits (-45.0 90.0)
           (-70.0 20.0)
  end
  begin
     id 5 
     name ltoes
     direction 1.53511e-011 -4.21891e-011 1   
     length 0.99735   
     axis -90 7.62852e-016 20   XYZ
    dof rx
    limits (-90.0 20.0)
  end
  begin
     id 6 
     name rhipjoint
     direction -0.687828 -0.642391 0.337975   
     length 2.5338  
     axis 0 0 0  XYZ 
  end
  begin
     id 7 
     name rfemur
     direction -0.34202 -0.939693 0   
     length 6.90199   
     axis 0 0 -20   XYZ
    dof rx ry rz
    limits (-160.0 20.0)
           (-70.0 70.0)
           (-70.0 60.0)
  end
  begin
     id 8 
     name rtibia
     direction -0.34202 -0.939693 0   
     length 8.07725   
     axis 0 0 -20   XYZ
    dof rx
    limits (-10.0 170.0)
 end
 begin
     id 9 
     name rfoot
     direction -0.0912384 -0.250675 0.963762   
     length 2.11621  
     axis -90 -7.62852e-016 -20   XYZ
    dof rx rz
    limits (-45.0 90.0)
           (-20.0 70.0)
  end
  begin
     id 10 
     name rtoes
     direction -1.5359e-011 -4.21894e-011 1   
     length 1.06031   
     axis -90 -7.62852e-016 -20   XYZ
    dof rx
    limits (-90.0 20.0)
  end
  begin
     id 11 
     name lowerback
     direction -0.0403572 0.987953 -0.149396   
     length 2.05637   
     axis 0 0 0   XYZ
    dof rx ry rz
    limits (-20.0 45.0)
           (-30.0 30.0)
           (-30.0 30.0)
  end
  begin
     id 12 
     name upperback
     direction -0.00512151 0.997598 0.0690792   
     length 2.01086   
     axis 0 0 0   XYZ
    dof rx ry rz
    limits (-20.0 45.0)
           (-30.0 30.0)
           (-30.0 30.0)
  end
  begin
     id 13 
     name thorax
     direction 0.0136133 0.989392 0.14463   
     length 2.09035   
     axis 0 0 0   XYZ
    dof rx ry rz
    limits (-20.0 45.0)
           (-30.0 30.0)
           (-30.0 30.0)
  end
  begin
     id 14 
     name lowerneck
     direction 0.0250714 0.992811 0.11704   
     length 1.70806   
     axis 0 0 0   XYZ
    dof rx ry rz
    limits (-20.0 45.0)
           (-30.0 30.0)
           (-30.0 30.0)
  end
  begin
     id 15 
     name upperneck
     direction -0.0519205 0.998394 -0.0226787   
     length 1.6689   
     axis 0 0 0   XYZ
    dof rx ry rz
    limits (-20.0 45.0)
           (-30.0 30.0)
           (-30.0 30.0)
  end
  begin
     id 16
     name head
     direction -0.0201693 0.999547 -0.0223192  
     length 1.83412  
     axis 0 0 0   XYZ
    dof rx ry rz
    limits (-20.0 45.0)
           (-30.0 30.0)
           (-30.0 30.0)
  end
  begin
     id 17 
     name lclavicle
     direction 0.89585 0.444077 -0.0157448  
     length 3.39587  
     axis 0 0 0   XYZ
    dof ry rz
    limits (-20.0 10.0)
           (0.0 20.0)
  end
  begin
     id 18 
     name lhumerus
     direction 1 -4.48956e-011 1.99132e-028   
     length 5.79199   
     axis 180 -30 -90   XYZ
    dof rx ry rz
    limits (-60.0 90.0)
           (-90.0 90.0)
           (-90.0 90.0)
  end
  begin
     id 19
     name lradius
     direction 1 -4.48974e-011 8.72912e-028   
     length 3.49908   
     axis 180 -30 -90   XYZ
    dof rx
    limits (-10.0 170.0)
  end
  begin
     id 20
     name lwrist
     direction 1 -4.48994e-011 4.76442e-027   
     length 1.74954   
     axis -3.27502e-015 90 90   XYZ
    dof ry
    limits (-180.0 0.0)
 end
  begin
     id 21 
     name lhand
     direction 1 -4.48945e-011 9.531e-027   
     length 0.593861   
     axis -6.08098e-015 90 90   XYZ
    dof rx rz
    limits (-90.0 90.0)
           (-45.0 45.0)
  end
  begin
     id 22 
     name lfingers
     direction 1 -4.48945e-011 1.9062e-026   
     length 0.478786   
     axis -1.21619e-014 90 90   XYZ
    dof rx
    limits (0.0 90.0)
  end
  begin
     id 23
     name lthumb
     direction 0.707107 -6.34904e-011 0.707107   
     length 0.687444   
     axis -90 45 -9.86923e-015   XYZ
    dof rx rz
    limits (-45.0 45.0)
           (-45.0 45.0)
  end
  begin
     id 24 
     name rclavicle
     direction -0.940466 0.338394 0.0318182   
     length 3.51226  
     axis 0 0 0   XYZ 
    dof ry rz
    limits (-10.0 20.0)
           (-20.0 0.0)
  end
  begin
     id 25 
     name rhumerus
     direction -1 -4.48976e-011 2.0905e-027  
     length 5.73799   
     axis 180 30 90   XYZ
    dof rx ry rz
    limits (-90.0 60.0)
           (-90.0 90.0)
           (-90.0 90.0)
  end
  begin
     id 26 
     name rradius
     direction -1 -4.48968e-011 -9.39692e-029   
     length 3.57916   
     axis 180 30 90   XYZ
    dof rx
    limits (-10.0 170.0)
  end
  begin
     id 27 
     name rwrist
     direction -1 -4.48959e-011 4.7652e-027   
     length 1.78958   
     axis -3.27502e-015 -90 -90   XYZ
    dof ry
    limits (-180.0 0.0)
  end
  begin
     id 28
     name rhand
     direction -1 -4.49042e-011 9.5267e-027   
     length 0.615577   
     axis -6.08098e-015 -90 -90   XYZ
    dof rx rz
    limits (-90.0 90.0)
           (-45.0 45.0)
  end
  begin
     id 29
     name rfingers
     direction -1 -4.48935e-011 1.90629e-026   
     length 0.496294   
     axis -1.21619e-014 -90 -90   XYZ
    dof rx
    limits (0.0 90.0)
  end
  begin
     id 30
     name rthumb
     direction -0.707107 -6.34977e-011 0.707107   
     length 0.712582   
     axis -90 -45 9.86923e-015   XYZ
    dof rx rz
    limits (-45.0 45.0)
           (-45.0 45.0)
  end
:hierarchy
  begin
    root lhipjoint rhipjoint lowerback
    lhipjoint lfemur
    lfemur ltibia
    ltibia lfoot
    lfoot ltoes
    rhipjoint rfemur
    rfemur rtibia
    rtibia rfoot
    rfoot rtoes
    lowerback upperback
    upperback thorax
    thorax lowerneck lclavicle rclavicle
    lowerneck upperneck
    upperneck head
    lclavicle lhumerus
    lhumerus lradius
    lradius lwrist
    lwrist lhand lthumb
    lhand lfingers
    rclavicle rhumerus
    rhumerus rradius
    rradius rwrist
    rwrist rhand rthumb
    rhand rfingers
  end

#!OML:ASF H:\Terrain\Patient Classification 1\PaulMetrics\March17Take5\PaulMetrics.ASF
:FULLY-SPECIFIED
:DEGREES
2457
root 15.3245 17.489 -14.8713 -2.96579 -56.9517 8.42052
lowerback -0.567591 0.444552 -7.92118
upperback -5.3042 0.24756 -1.62287
thorax -5.25758 0.403235 2.73145
lowerneck -1.9133 2.18317 3.1007
upperneck -4.92195 2.68938 -4.5396
head -1.10065 1.32679 -1.95928
rclavicle 1.54058e-014 2.50469e-014
rhumerus 1.24158 51.8625 -48.8815
rradius 115.359
rwrist -1.64114
rhand -29.054 -19.3539
rfingers 7.12502
rthumb -2.40388 -49.3201
lclavicle 1.54058e-014 2.50469e-014
lhumerus 1.4132 -47.3799 48.5017
lradius 118.511
lwrist 17.5951
lhand -26.7907 -38.7935
lfingers 7.12502
lthumb -0.217961 -8.81384
rfemur -5.32278 8.699 10.7979
rtibia 19.1585
rfoot -17.5564 -25.6409
rtoes -10.5988
lfemur -13.5473 -2.7049 -17.7885
ltibia 23.3796
lfoot -14.6648 11.0327
ltoes -6.08077
2458
root 15.3166 17.4902 -14.87 -3.02489 -57.0342 8.42422
lowerback -0.652212 0.521385 -7.91501
upperback -5.291 0.360711 -1.60409
thorax -5.20731 0.457694 2.74366
lowerneck -2.12818 2.17401 3.21817
upperneck -5.07899 2.65971 -4.64376
head -1.11224 1.3079 -2.01288
rclavicle 4.37326e-014 3.57812e-015
rhumerus 4.00456 50.6213 -45.9744
rradius 115.9
rwrist -1.82984
rhand -28.4873 -18.9407
rfingers 7.12502
rthumb -1.85655 -48.9124
lclavicle 4.37326e-014 3.57812e-015
lhumerus 4.04309 -46.6013 46.079
lradius 119.021
lwrist 17.5908
lhand -26.9105 -39.1918
lfingers 7.12502
lthumb -0.333607 -9.21236
rfemur -5.31925 8.73535 10.7756
rtibia 19.2428
rfoot -18.0697 -25.2395
rtoes -8.49168
lfemur -13.3399 -2.74747 -17.7524
ltibia 23.2455
lfoot -14.8873 10.828
ltoes -4.78854
2459
root 15.3075 17.4917 -14.8705 -3.48784 -57.0979 8.86515
lowerback -0.675544 0.580821 -8.1768
upperback -5.31055 0.431836 -1.63822
thorax -5.2291 0.50427 2.85039
lowerneck -2.13424 2.06629 3.30292
upperneck -5.32666 2.49547 -4.87411
head -1.19354 1.22646 -2.10709
rclavicle 5.76476e-014 -1.35174e-014
rhumerus 6.06554 49.597 -43.7035
rradius 116.489
rwrist -0.843141
rhand -28.567 -18.9625
rfingers 7.12502
rthumb -1.93351 -48.9335
lclavicle 5.76476e-014 -1.35174e-014
lhumerus 6.43498 -45.7948 43.6899
lradius 119.571
lwrist 17.8696
lhand -26.9007 -39.3824
lfingers 7.12502
lthumb -0.324229 -9.40288
rfemur -5.24638 9.24972 10.5649
rtibia 19.3189
rfoot -18.369 -25.1912
rtoes -6.16902
lfemur -13.0826 -2.8134 -17.9679
ltibia 23.1595
lfoot -15.1755 10.7065
ltoes -2.71831
2460
root 15.2981 17.4842 -14.8691 -3.72605 -57.1615 9.07106
lowerback -0.700679 0.53842 -8.32832
upperback -5.36046 0.367847 -1.66233
thorax -5.26456 0.48024 2.91163
lowerneck -2.33828 1.97878 3.04081
upperneck -5.44574 2.37402 -4.74554
head -1.20498 1.16601 -2.01671
rclavicle 4.62174e-015 6.36111e-015
rhumerus 8.18659 48.5921 -41.4829
rradius 116.966
rwrist 0.177956
rhand -28.4324 -18.9357
rfingers 7.12502
rthumb -1.80349 -48.9078
lclavicle 4.62174e-015 6.36111e-015
lhumerus 8.29814 -44.8426 41.4951
lradius 120.045
lwrist 18.0117
lhand -26.8597 -39.6731
lfingers 7.12502
lthumb -0.284564 -9.69359
rfemur -5.20055 9.36256 10.5616
rtibia 19.3715
rfoot -17.4964 -25.812
rtoes -10.2722
lfemur -12.9151 -2.71453 -18.0776
ltibia 23.075
lfoot -15.1686 10.683
ltoes -3.0447
2461
root 15.2885 17.4836 -14.8635 -3.20636 -57.1262 8.46213
lowerback -0.723122 0.438824 -7.96234
upperback -5.47464 0.241794 -1.57883
thorax -5.35118 0.408969 2.79989
lowerneck -2.3976 2.00145 2.89196
upperneck -5.68719 2.39768 -4.64063
head -1.27265 1.17832 -1.95848
rclavicle 4.34344e-014 1.94809e-014
rhumerus 10.3979 47.516 -39.0289
rradius 117.393
rwrist 0.667675
rhand -28.2643 -19.0845
rfingers 7.12502
rthumb -1.64118 -49.0579
lclavicle 4.34344e-014 1.94809e-014
lhumerus 9.87534 -43.9088 39.5431
lradius 120.523
lwrist 18.0624
lhand -27.1128 -39.8298
lfingers 7.12502
lthumb -0.529016 -9.85066
rfemur -5.16924 9.15333 10.9792
rtibia 19.3867
rfoot -16.7769 -26.2825
rtoes -14.3304
lfemur -12.9115 -2.67058 -17.7481
ltibia 23.0178
lfoot -14.8256 11.0289
ltoes -4.74582
2462
root 15.2764 17.4929 -14.8546 -2.84343 -56.9612 8.02402
lowerback -0.7422 0.408713 -7.5878
upperback -5.60268 0.205491 -1.53674
thorax -5.46494 0.381072 2.63613
lowerneck -2.17394 1.92796 2.66779
upperneck -6.13637 2.29442 -4.49808
head -1.46145 1.13251 -1.88247
rclavicle -2.8128e-014 -2.78299e-015
rhumerus 12.1004 46.4116 -36.7174
rradius 117.896
rwrist 1.22902
rhand -28.9035 -19.533
rfingers 7.12502
rthumb -2.25849 -49.5008
lclavicle -2.8128e-014 -2.78299e-015
lhumerus 11.4272 -43.0276 37.9301
lradius 121.07
lwrist 18.1701
lhand -27.7818 -39.8099
lfingers 7.12502
lthumb -1.17518 -9.83335
rfemur -4.95971 9.29934 11.2075
rtibia 19.2747
rfoot -17.7723 -26.0923
rtoes -10.899
lfemur -12.9487 -2.78503 -17.5317
ltibia 23.1007
lfoot -14.6443 11.3153
ltoes -5.82135
2463
root 15.2633 17.4918 -14.8492 -3.34197 -56.82 8.57202
lowerback -0.757401 0.403808 -7.8412
upperback -5.69464 0.181236 -1.61722
thorax -5.55737 0.382394 2.69305
lowerneck -1.97343 1.84161 2.37064
upperneck -6.53134 2.17932 -4.27672
head -1.63088 1.08098 -1.76703
rclavicle -3.84151e-014 1.27222e-014
rhumerus 13.7694 45.2194 -34.7799
rradius 118.026
rwrist 1.67972
rhand -29.1376 -19.5743
rfingers 7.12502
rthumb -2.48458 -49.5396
lclavicle -3.84151e-014 1.27222e-014
lhumerus 12.9296 -42.0463 36.3472
lradius 121.467
lwrist 17.9535
lhand -28.3381 -39.8645
lfingers 7.12502
lthumb -1.71241 -9.89164
rfemur -4.73962 9.43333 10.8563
rtibia 19.1558
rfoot -18.5724 -25.8563
rtoes -7.82366
lfemur -12.8928 -2.94814 -17.8676
ltibia 23.1804
lfoot -14.8425 11.0885
ltoes -5.7426
2464
root 15.2515 17.4806 -14.8477 -3.77257 -56.8348 9.01908
lowerback -0.772671 0.374206 -8.16998
upperback -5.73131 0.130499 -1.62236
thorax -5.58981 0.373972 2.87216
lowerneck -2.02013 1.86571 2.21658
upperneck -6.78753 2.20514 -4.17383
head -1.70598 1.09485 -1.71
rclavicle -1.08487e-013 2.38542e-015
rhumerus 15.7956 43.9936 -33.0365
rradius 117.798
rwrist 1.82782
rhand -29.1101 -19.2323
rfingers 7.12502
rthumb -2.45802 -49.1979
lclavicle -1.08487e-013 2.38542e-015
lhumerus 14.2703 -40.8648 34.597
lradius 121.871
lwrist 17.6766
lhand -28.7518 -39.7558
lfingers 7.12502
lthumb -2.11196 -9.78651
rfemur -4.67927 9.22539 10.6594
rtibia 19.1908
rfoot -17.6064 -26.1477
rtoes -11.6275
lfemur -12.7477 -2.90818 -18.1227
ltibia 23.1279
lfoot -14.911 10.9191
ltoes -5.72001
2465
root 15.2422 17.4726 -14.8442 -3.77906 -56.8765 8.91818
lowerback -0.682128 0.366261 -8.26808
upperback -5.78158 0.112391 -1.47722
thorax -5.69647 0.379478 3.07844
lowerneck -2.26414 1.8978 2.34134
upperneck -6.8242 2.21914 -4.55637
head -1.67124 1.10122 -1.85275
rclavicle -8.01599e-014 -1.49089e-014
rhumerus 17.58 42.7505 -31.1752
rradius 117.846
rwrist 1.94276
rhand -29.7504 -18.8501
rfingers 7.12502
rthumb -3.07646 -48.8076
lclavicle -8.01599e-014 -1.49089e-014
lhumerus 15.3789 -39.5409 33.1604
lradius 122.305
lwrist 17.8256
lhand -28.5252 -39.5778
lfingers 7.12502
lthumb -1.89318 -9.60647
rfemur -4.61381 9.04606 10.7859
rtibia 19.2967
rfoot -16.8869 -26.3381
rtoes -14.567
lfemur -12.541 -2.96159 -18.0417
ltibia 23.0436
lfoot -15.0326 11.1875
ltoes -5.14322
2466
root 15.2335 17.4677 -14.8379 -4.00029 -56.8802 9.08575
lowerback -0.536463 0.366069 -8.46898
upperback -5.90484 0.0846352 -1.41252
thorax -5.91441 0.3881 3.25745
lowerneck -2.33344 1.96715 2.85424
upperneck -6.74597 2.27619 -5.213
head -1.62323 1.12627 -2.1567
rclavicle 8.05078e-015 -9.34288e-015
rhumerus 18.8731 41.4651 -29.532
rradius 118.124
rwrist 2.00814
rhand -30.2634 -18.3189
rfingers 7.12502
rthumb -3.57182 -48.2687
lclavicle 8.05078e-015 -9.34288e-015
lhumerus 16.2507 -38.2029 32.2012
lradius 122.461
lwrist 18.1293
lhand -27.7408 -39.975
lfingers 7.12502
lthumb -1.13553 -9.9983
rfemur -4.47187 9.09754 10.6891
rtibia 19.285
rfoot -17.4898 -26.0741
rtoes -11.7408
lfemur -12.391 -3.18021 -18.132
ltibia 23.059
lfoot -15.319 11.5938
ltoes -3.55444
2467
root 15.2229 17.4644 -14.8322 -4.21268 -56.9938 9.31174
lowerback -0.50085 0.411578 -8.46622
upperback -6.04361 0.120507 -1.55449
thorax -6.0883 0.409257 3.1037
lowerneck -2.1398 2.09373 3.70653
upperneck -6.93346 2.41276 -5.72634
head -1.70074 1.18537 -2.48821
rclavicle 3.8117e-014 1.86858e-014
rhumerus 19.6192 40.0604 -28.4876
rradius 118.507
rwrist 2.17495
rhand -30.1298 -17.8025
rfingers 7.12502
rthumb -3.44285 -47.7545
lclavicle 3.8117e-014 1.86858e-014
lhumerus 17.3017 -37.1243 30.9463
lradius 122.59
lwrist 18.7395
lhand -27.3545 -40.3463
lfingers 7.12502
lthumb -0.762494 -10.3679
rfemur -4.38255 9.33077 10.5764
rtibia 19.1933
rfoot -17.9588 -25.9349
rtoes -9.42508
lfemur -12.3184 -3.34297 -18.2614
ltibia 23.1088
lfoot -15.3516 11.8496
ltoes -3.12077
2468
root 15.2127 17.4672 -14.8305 -4.21686 -57.0432 9.3286
lowerback -0.456762 0.439052 -8.3432
upperback -6.192 0.136319 -1.66447
thorax -6.27237 0.415708 2.91738
lowerneck -1.90748 2.15062 4.10091
upperneck -7.26772 2.47058 -5.91422
head -1.84283 1.21113 -2.63424
rclavicle -3.18552e-014 -3.97569e-014
rhumerus 20.1959 38.6532 -27.4602
rradius 118.964
rwrist 2.42532
rhand -29.9465 -17.5739
rfingers 7.12502
rthumb -3.26579 -47.5286
lclavicle -3.18552e-014 -3.97569e-014
lhumerus 18.3845 -36.1631 29.6378
lradius 122.636
lwrist 19.112
lhand -27.8416 -40.3109
lfingers 7.12502
lthumb -1.23294 -10.3347
rfemur -4.36678 9.5005 10.6238
rtibia 19.1265
rfoot -17.5921 -26.3776
rtoes -11.9263
lfemur -12.3216 -3.46118 -18.2795
ltibia 23.1021
lfoot -15.1578 12.3307
ltoes -6.68976
2469
root 15.2031 17.4709 -14.8271 -4.27 -56.9158 9.37169
lowerback -0.505408 0.415023 -8.27901
upperback -6.20051 0.105057 -1.74947
thorax -6.24803 0.392852 2.79437
lowerneck -2.20432 2.13366 3.73181
upperneck -7.17382 2.46603 -5.47832
head -1.76631 1.20592 -2.41338
rclavicle -1.02573e-013 -7.95139e-016
rhumerus 20.9429 37.0449 -26.2874
rradius 119.196
rwrist 2.49524
rhand -30.1027 -17.5385
rfingers 7.12502
rthumb -3.41662 -47.4909
lclavicle -1.02573e-013 -7.95139e-016
lhumerus 19.5094 -34.8623 28.434
lradius 122.632
lwrist 19.0149
lhand -28.331 -40.32
lfingers 7.12502
lthumb -1.70557 -10.3471
rfemur -4.26944 9.43055 10.6341
rtibia 19.0573
rfoot -17.3176 -26.848
rtoes -14.6844
lfemur -12.3228 -3.52652 -18.3417
ltibia 23.0888
lfoot -15.2175 12.5646
ltoes -8.69555
2470
root 15.1903 17.4768 -14.8207 -3.89025 -56.8419 8.92093
lowerback -0.70395 0.426588 -7.85687
upperback -6.13875 0.152417 -1.85912
thorax -6.06153 0.382982 2.44494
lowerneck -2.95087 2.08048 3.27935
upperneck -6.72961 2.43401 -4.69642
head -1.50429 1.17865 -2.05267
rclavicle 7.196e-014 4.85035e-014
rhumerus 21.3759 35.3261 -25.2877
rradius 119.334
rwrist 2.4779
rhand -30.3883 -17.4916
rfingers 7.12502
rthumb -3.69239 -47.4394
lclavicle 7.196e-014 4.85035e-014
lhumerus 20.6317 -33.4701 26.9737
lradius 122.991
lwrist 19.2448
lhand -28.3516 -40.0555
lfingers 7.12502
lthumb -1.7255 -10.0827
rfemur -4.09682 9.61616 10.8887
rtibia 18.9636
rfoot -18.4545 -26.6381
rtoes -11.3361
lfemur -12.272 -3.58707 -18.0682
ltibia 23.1285
lfoot -15.5176 12.0095
ltoes -4.86457
